<svg
     
      fill="none"
      height="24"
      viewBox="0 0 24 24"
      width="24"
      xmlns="http://www.w3.org/2000/svg"
    ><path
        d="M9.5 6.5C9.5 5.67157 8.82843 5 8 5C7.17157 5 6.5 5.67157 6.5 6.5V9.5C6.5 10.3284 7.17157 11 8 11C8.82843 11 9.5 10.3284 9.5 9.5V6.5Z"
        stroke="currentColor"
        stroke-linecap="round"
        stroke-linejoin="round"
        stroke-width="2"
      /><path
        d="M17.5 6.5C17.5 5.67157 16.8284 5 16 5C15.1716 5 14.5 5.67157 14.5 6.5V9.5C14.5 10.3284 15.1716 11 16 11C16.8284 11 17.5 10.3284 17.5 9.5V6.5Z"
        stroke="currentColor"
        stroke-linecap="round"
        stroke-linejoin="round"
        stroke-width="2"
      /><path
        d="M9.5 14.5C9.5 13.6716 8.82843 13 8 13C7.17157 13 6.5 13.6716 6.5 14.5V17.5C6.5 18.3284 7.17157 19 8 19C8.82843 19 9.5 18.3284 9.5 17.5V14.5Z"
        stroke="currentColor"
        stroke-linecap="round"
        stroke-linejoin="round"
        stroke-width="2"
      /><path
        d="M17.5 14.5C17.5 13.6716 16.8284 13 16 13C15.1716 13 14.5 13.6716 14.5 14.5V17.5C14.5 18.3284 15.1716 19 16 19C16.8284 19 17.5 18.3284 17.5 17.5V14.5Z"
        stroke="currentColor"
        stroke-linecap="round"
        stroke-linejoin="round"
        stroke-width="2"
      /><path
        d="M9.5 15.5H14.5"
        stroke="currentColor"
        stroke-linecap="round"
        stroke-linejoin="round"
        stroke-width="2"
      /><path
        d="M14.5 8.5H9.5"
        stroke="currentColor"
        stroke-linecap="round"
        stroke-linejoin="round"
        stroke-width="2"
      /></svg>
