<svg
     
      fill="none"
      height="24"
      viewBox="0 0 24 24"
      width="24"
      xmlns="http://www.w3.org/2000/svg"
    ><path
        d="M10 13C10.4295 13.5741 10.9774 14.0491 11.6066 14.3929C12.2357 14.7367 12.9315 14.9411 13.6467 14.9923C14.3618 15.0435 15.0796 14.9404 15.7513 14.6898C16.4231 14.4392 17.0331 14.047 17.54 13.54L20.54 10.54C21.4508 9.59699 21.9548 8.33397 21.9404 7.02296C21.926 5.71195 21.3943 4.46047 20.4641 3.53726C19.5339 2.61404 18.278 2.09539 16.9669 2.08956C15.6558 2.08373 14.3951 2.59124 13.456 3.506L11.48 5.466"
        stroke="currentColor"
        stroke-linecap="round"
        stroke-linejoin="round"
        stroke-width="2"
      /><path
        d="M14 11C13.5705 10.4259 13.0226 9.95092 12.3934 9.60711C11.7643 9.26329 11.0685 9.05886 10.3533 9.00768C9.63819 8.9565 8.92041 9.05961 8.24866 9.3102C7.57691 9.5608 6.96689 9.95297 6.46 10.46L3.46 13.46C2.54922 14.403 2.04518 15.666 2.05958 16.977C2.07398 18.2881 2.60567 19.5395 3.53588 20.4627C4.4661 21.386 5.72198 21.9046 7.03307 21.9104C8.34416 21.9163 9.60492 21.4088 10.544 20.494L12.51 18.534"
        stroke="currentColor"
        stroke-linecap="round"
        stroke-linejoin="round"
        stroke-width="2"
      /></svg>
