<svg
     
      fill="none"
      height="24"
      viewBox="0 0 16 16"
      width="24"
      xmlns="http://www.w3.org/2000/svg"
    ><path
        clip-rule="evenodd"
        d="M8 1.33333C11.6823 1.33333 14.6667 4.31811 14.6667 7.99999C14.6667 11.6819 11.6823 14.6667 8 14.6667C4.31771 14.6667 1.33333 11.6819 1.33333 7.99999C1.33333 4.31811 4.31771 1.33333 8 1.33333ZM8 9.99999C6.40364 9.99999 5.07812 10.6703 4.1901 11.7331C5.15884 12.7207 6.50789 13.3333 8 13.3333C9.4921 13.3333 10.8412 12.7207 11.8099 11.7331C10.9219 10.6703 9.59635 9.99999 8 9.99999ZM8 4.49999C6.80301 4.49999 5.83333 5.47005 5.83333 6.66666C5.83333 7.86327 6.80301 8.83333 8 8.83333C9.19698 8.83333 10.1667 7.86327 10.1667 6.66666C10.1667 5.47005 9.19698 4.49999 8 4.49999Z"
        fill="currentColor"
        fill-rule="evenodd"
      /></svg>
