<svg
     
      fill="none"
      height="16"
      viewBox="0 0 16 16"
      width="16"
      xmlns="http://www.w3.org/2000/svg"
    ><path
        d="M6.99884 4.66667C6.99884 5.77124 6.10341 6.66667 4.99884 6.66667C3.89427 6.66667 2.99884 5.77124 2.99884 4.66667C2.99884 3.5621 3.89427 2.66667 4.99884 2.66667C6.10341 2.66667 6.99884 3.5621 6.99884 4.66667Z"
        stroke="currentColor"
        stroke-width="1.33"
        stroke-linecap="round"
        stroke-linejoin="round"
      /><path
        d="M12.9988 4.66667C12.9988 5.77124 12.1034 6.66667 10.9988 6.66667C9.89427 6.66667 8.99884 5.77124 8.99884 4.66667C8.99884 3.5621 9.89427 2.66667 10.9988 2.66667C12.1034 2.66667 12.9988 3.5621 12.9988 4.66667Z"
        stroke="currentColor"
        stroke-width="1.33"
        stroke-linecap="round"
        stroke-linejoin="round"
      /><path
        d="M1.46989 11.2475C1.0229 12.3179 1.986 13.3333 3.14595 13.3333H6.85406C8.014 13.3333 8.9771 12.3179 8.53011 11.2475C7.09306 7.80638 2.90694 7.80638 1.46989 11.2475Z"
        stroke="currentColor"
        stroke-width="1.33"
        stroke-linecap="round"
        stroke-linejoin="round"
      /><path
        d="M10.1812 8.76476C11.83 8.36388 13.6702 9.19175 14.5287 11.2484C14.9755 12.3188 14.0122 13.3333 12.8523 13.3333H11.3317"
        stroke="currentColor"
        stroke-width="1.33"
        stroke-linecap="round"
        stroke-linejoin="round"
      /></svg>
