<svg
     
      fill="none"
      height="24"
      viewBox="0 0 16 16"
      width="24"
      xmlns="http://www.w3.org/2000/svg"
    ><path
        clip-rule="evenodd"
        d="M1.33337 8C1.33337 4.3181 4.31814 1.33333 8.00004 1.33333C11.6819 1.33333 14.6667 4.3181 14.6667 8C14.6667 11.6819 11.6819 14.6667 8.00004 14.6667C4.31814 14.6667 1.33337 11.6819 1.33337 8ZM6.47144 5.52859C6.2111 5.26824 5.78899 5.26824 5.52864 5.52859C5.26829 5.78894 5.26829 6.21105 5.52864 6.4714L7.05723 8L5.52864 9.52859C5.26829 9.78894 5.26829 10.2111 5.52864 10.4714C5.78899 10.7318 6.2111 10.7318 6.47144 10.4714L8.00004 8.94281L9.52864 10.4714C9.78899 10.7318 10.2111 10.7318 10.4714 10.4714C10.7318 10.2111 10.7318 9.78894 10.4714 9.52859L8.94285 8L10.4714 6.4714C10.7318 6.21105 10.7318 5.78894 10.4714 5.52859C10.2111 5.26824 9.78899 5.26824 9.52864 5.52859L8.00004 7.05719L6.47144 5.52859Z"
        fill="currentColor"
        fill-rule="evenodd"
      /></svg>
